<?xml version="1.0" standalone="no"?>
<!DOCTYPE svg PUBLIC "-//W3C//DTD SVG 20010904//EN"
 "http://www.w3.org/TR/2001/REC-SVG-20010904/DTD/svg10.dtd">
<svg version="1.0" xmlns="http://www.w3.org/2000/svg"
  fill="" viewBox="0 0 260.000000 280.000000"
 preserveAspectRatio="xMidYMid meet">

<g transform="translate(0.000000,280.000000) scale(0.100000,-0.100000)"
fill="#212121" stroke="none">
<path d="M1152 2784 c-30 -8 -85 -28 -124 -45 -38 -17 -71 -29 -71 -27 -16 32
-29 44 -51 46 -61 7 -88 -68 -45 -122 20 -25 20 -32 10 -67 -7 -22 -21 -49
-32 -60 -10 -10 -19 -31 -19 -46 0 -23 -12 -35 -65 -70 -36 -24 -69 -43 -74
-43 -6 0 -13 -5 -17 -12 -5 -8 8 -10 49 -5 32 3 57 5 57 3 0 -1 -9 -19 -20
-41 -11 -22 -20 -47 -20 -56 0 -9 -9 -24 -21 -35 -52 -47 -62 -111 -28 -181
16 -33 68 -86 96 -98 1 -1 -5 -24 -14 -52 -24 -77 2 -141 53 -129 27 7 28 7
14 -28 -8 -23 -12 -25 -36 -15 -47 17 -84 2 -102 -43 -12 -30 -18 -36 -24 -24
-5 9 1 44 18 93 31 91 29 161 -5 258 -53 150 -172 210 -303 152 -68 -31 -112
-68 -145 -124 -66 -114 2 -354 118 -413 56 -29 124 -35 178 -16 52 19 51 19
51 6 0 -6 -11 -15 -24 -20 -68 -26 -120 -105 -82 -127 8 -4 15 -17 17 -28 3
-13 13 -21 31 -23 22 -3 26 -8 25 -30 -2 -21 3 -28 21 -30 15 -2 22 -10 22
-27 0 -33 27 -39 66 -14 19 11 34 16 34 10 0 -23 41 -51 74 -51 27 0 38 -7 60
-38 14 -21 26 -47 26 -59 0 -11 8 -31 18 -43 23 -29 59 -20 75 19 7 14 41 64
76 110 54 70 65 81 73 66 8 -13 3 -24 -22 -50 -36 -37 -33 -59 7 -49 24 7 25
5 19 -22 -4 -16 -19 -51 -32 -79 -24 -46 -24 -50 -8 -62 10 -7 32 -16 51 -19
39 -7 40 -15 12 -56 -26 -35 -49 -109 -49 -153 l0 -31 -67 33 c-90 43 -178 65
-255 61 -88 -4 -82 -22 22 -62 47 -17 120 -55 162 -84 l78 -53 32 17 c21 10
28 11 21 3 -21 -21 -15 -36 22 -59 38 -23 71 -20 79 8 3 9 8 51 11 92 7 102
14 129 36 151 10 10 16 25 13 34 -11 26 25 56 64 53 35 -2 67 23 115 91 21 31
26 26 36 -38 4 -28 11 -54 14 -57 3 -4 68 14 144 40 76 25 145 47 153 48 11 2
17 -15 25 -72 l10 -75 40 -2 c22 -2 68 -6 103 -9 l62 -6 0 -42 c0 -52 -44
-111 -93 -122 -46 -10 -95 -35 -102 -52 -5 -13 6 -14 77 -9 46 4 98 7 116 7
22 0 34 6 38 18 3 9 17 43 32 75 21 48 24 61 14 77 -12 19 -7 50 8 50 18 0 40
33 40 60 0 36 -17 42 -81 30 -79 -15 -117 -12 -139 10 -11 11 -24 20 -29 20
-13 0 -25 60 -15 70 5 4 52 15 104 25 114 21 140 30 140 47 0 31 -22 86 -41
107 -12 13 -36 60 -54 106 -33 83 -94 184 -145 240 -34 37 -160 206 -160 215
0 16 100 62 140 64 38 2 48 -2 81 -35 40 -40 56 -101 31 -121 -26 -22 -42 -67
-42 -117 0 -40 4 -53 22 -65 12 -9 32 -16 45 -16 12 0 33 -11 47 -25 33 -33
72 -42 95 -21 10 9 25 14 35 10 19 -7 133 43 140 63 3 7 8 34 12 61 6 45 4 51
-33 97 -27 34 -57 58 -93 75 -65 30 -82 46 -142 131 -36 50 -60 73 -102 95
-31 16 -56 34 -56 39 0 6 -4 16 -9 23 -10 17 -58 -3 -66 -28 -5 -16 -24 -30
-143 -107 l-52 -34 -9 24 c-11 28 48 223 82 270 18 26 18 30 4 44 -15 15 -26
13 -130 -20 -63 -21 -120 -37 -126 -37 -8 0 -4 11 8 26 49 62 8 139 -60 115
-18 -6 -33 -11 -34 -11 -4 0 -25 86 -25 99 0 6 20 16 45 22 52 13 58 25 53
114 -3 67 -1 65 -98 54 -32 -4 -35 -2 -48 35 -12 39 -12 40 18 64 34 26 37 43
14 66 -19 20 -80 20 -152 0z m-79 -77 c4 3 7 4 7 1 0 -3 -8 -12 -17 -19 -10
-7 -15 -9 -11 -5 4 5 2 16 -5 25 -10 14 -10 14 4 4 9 -7 19 -10 22 -6z m-148
-77 c3 -5 0 -10 -7 -11 -10 0 -10 -2 0 -6 18 -7 15 -23 -5 -24 -11 0 -13 -3
-5 -6 17 -7 15 -23 -3 -23 -8 0 -15 -7 -15 -17 0 -9 -2 -14 -5 -11 -8 7 17
108 26 108 4 0 11 -4 14 -10z m433 -59 c3 -9 -2 -11 -17 -6 -13 4 -21 2 -21
-5 0 -7 -8 -10 -20 -7 -11 3 -20 1 -20 -5 0 -6 -7 -7 -15 -4 -9 3 -23 2 -33
-3 -9 -4 -35 -16 -57 -27 -22 -10 -43 -20 -47 -22 -5 -2 -8 -1 -8 3 0 3 39 25
88 50 87 44 141 53 150 26z m-57 -171 c12 -39 19 -80 16 -90 -6 -25 -6 -25 37
1 52 30 80 23 84 -22 4 -48 -24 -82 -66 -82 -18 0 -32 -4 -32 -9 0 -4 15 -8
33 -8 25 -1 10 -9 -71 -41 -136 -54 -140 -63 -79 -157 76 -117 75 -103 18
-187 -54 -81 -85 -154 -95 -228 l-7 -48 -57 32 c-75 42 -146 99 -183 145 -35
44 -36 60 -6 70 37 12 67 13 67 2 0 -6 11 -8 25 -6 14 3 25 1 25 -3 0 -5 5 -9
10 -9 6 0 8 12 5 28 -5 26 -5 26 6 5 17 -33 29 -28 24 10 -5 29 -5 30 6 10 13
-25 35 -32 25 -8 -19 48 -19 50 3 28 26 -28 30 -28 47 -6 9 13 9 22 2 31 -8 9
-6 11 8 7 13 -4 11 -2 -4 6 -19 10 -36 6 -120 -28 -53 -23 -113 -47 -132 -54
-19 -7 -46 -19 -59 -26 -45 -23 -80 22 -65 85 10 43 81 173 118 216 l33 40 28
-22 c50 -39 158 -25 220 30 30 26 35 36 35 75 0 50 -16 87 -54 122 -34 32
-124 41 -161 17 -14 -9 -25 -13 -25 -10 0 15 51 73 70 79 11 3 20 11 20 16 0
5 -14 3 -31 -3 -18 -8 -45 -35 -67 -68 -30 -45 -43 -55 -65 -55 -35 1 -29 -19
7 -23 27 -3 28 -6 22 -40 -3 -20 -6 -44 -6 -53 0 -12 -12 -5 -39 22 -32 33
-45 39 -80 39 -51 0 -54 17 -12 81 28 42 36 46 129 77 97 32 305 80 349 81 19
1 26 -9 44 -69z m-501 -8 c0 -4 -9 -13 -20 -20 -22 -13 -27 -3 -8 16 14 14 28
16 28 4z m340 -97 c29 -28 57 -81 47 -91 -3 -3 -25 -10 -49 -15 -63 -14 -188
-60 -188 -70 0 -5 20 0 45 11 49 21 153 50 179 50 25 0 19 -23 -15 -58 -35
-36 -116 -59 -174 -48 -30 6 -39 14 -52 43 -17 41 -11 109 14 156 31 61 139
74 193 22z m528 -62 c-2 -12 -14 -18 -38 -20 -19 -2 -46 -7 -60 -12 -14 -5
-34 -12 -44 -15 -38 -13 -7 -17 38 -5 26 6 49 9 51 7 3 -3 -2 -25 -11 -49 -9
-24 -17 -48 -18 -54 -17 -75 -15 -72 -79 -96 -85 -31 -193 -105 -139 -94 11 2
42 15 70 29 28 14 58 26 66 26 7 0 16 7 20 15 6 17 35 10 54 -13 21 -27 13
-39 -30 -45 -27 -4 -51 -15 -71 -35 -55 -56 -45 -175 18 -204 37 -17 95 17
119 69 17 36 49 63 75 63 5 0 20 -17 34 -39 14 -21 46 -63 70 -93 24 -29 42
-59 39 -66 -2 -7 5 -16 17 -19 27 -7 106 -126 130 -196 10 -29 26 -68 35 -85
9 -18 12 -32 7 -32 -19 0 1 -29 22 -32 14 -2 24 -14 31 -36 5 -18 6 -35 3 -39
-4 -3 -39 -12 -79 -18 -108 -19 -216 -48 -382 -104 -82 -28 -150 -50 -151 -48
-1 1 -7 34 -15 72 -7 39 -21 86 -30 105 -10 19 -21 51 -25 70 -12 58 -32 86
-66 96 -34 10 -44 23 -53 65 -4 17 -22 36 -56 57 -27 17 -50 36 -50 42 0 6 4
9 9 6 5 -3 12 6 15 20 4 14 56 74 116 134 61 60 110 114 110 119 0 5 -22 17
-50 26 -38 12 -50 22 -50 36 0 14 -4 18 -12 13 -9 -6 -9 -3 0 9 12 14 11 20
-7 43 -14 17 -19 35 -16 48 5 15 4 17 -3 8 -7 -10 -18 1 -46 44 -20 32 -36 61
-36 65 0 21 70 51 290 125 176 59 183 61 178 37z m-806 -39 c11 -11 26 -32 33
-49 12 -27 11 -33 -15 -65 -15 -19 -42 -59 -60 -87 -17 -29 -38 -53 -45 -53
-20 0 -76 59 -91 97 -28 66 -9 138 44 168 35 20 106 14 134 -11z m-324 -60
c75 -31 117 -90 147 -205 20 -74 16 -129 -15 -211 -18 -50 -27 -60 -74 -86
-78 -44 -124 -54 -186 -41 -67 14 -111 54 -151 135 -25 49 -33 82 -37 139 -6
99 13 150 80 210 75 68 163 90 236 59z m1322 -71 c0 -12 20 -27 59 -45 43 -20
69 -41 94 -76 20 -26 37 -54 39 -62 2 -8 14 -24 27 -37 32 -31 22 -48 -39 -63
-50 -12 -78 -7 -51 9 11 7 10 12 -5 28 -11 10 -38 41 -62 67 -36 39 -46 45
-59 35 -12 -10 -16 -10 -22 0 -7 10 -15 9 -42 -5 -62 -32 -229 -138 -229 -146
0 -4 9 -8 20 -8 28 0 25 -17 -10 -51 -43 -44 -88 -38 -114 14 -23 49 -15 100
24 139 31 31 63 38 53 12 -3 -9 33 9 83 42 49 31 110 70 135 85 25 16 51 40
57 54 13 29 42 34 42 8z m-736 -219 c4 -10 1 -14 -6 -12 -15 5 -23 28 -10 28
5 0 13 -7 16 -16z m231 -49 l45 -18 -110 -106 c-60 -59 -114 -118 -120 -131
-8 -21 -9 -18 -5 18 10 94 37 161 95 241 27 36 34 41 41 28 5 -8 29 -23 54
-32z m835 -15 c37 -19 110 -101 110 -124 -1 -63 -13 -85 -62 -110 -27 -14 -61
-26 -74 -26 -14 0 -35 -7 -48 -15 -39 -26 -89 4 -118 70 -9 20 -21 31 -38 32
l-25 3 28 -23 c31 -26 34 -37 10 -37 -50 0 -69 77 -37 146 19 40 30 47 106 63
31 7 62 19 68 27 17 19 33 18 80 -6z m-1283 -136 c7 3 10 -1 7 -8 -4 -11 190
-126 214 -126 5 0 17 -11 26 -25 9 -13 36 -36 61 -50 32 -19 45 -33 45 -49 0
-29 27 -66 49 -66 30 0 51 -24 65 -75 8 -28 20 -65 27 -83 12 -28 11 -36 -4
-65 -30 -56 -86 -110 -105 -102 -9 4 -62 18 -117 32 -55 14 -103 27 -107 29
-9 6 49 128 62 132 21 7 -13 32 -43 32 l-31 0 27 28 c29 30 34 60 15 81 -11
11 -9 12 10 6 16 -5 31 1 54 20 21 18 39 25 55 22 15 -3 23 1 23 9 0 19 -61
29 -177 29 -57 0 -103 2 -103 4 0 2 16 26 36 53 49 67 37 79 -48 49 -35 -12
-72 -25 -83 -28 -20 -4 -20 -4 -1 11 18 15 18 16 2 16 -13 0 -16 5 -11 20 3
10 1 46 -5 78 -6 33 -7 67 -4 77 6 14 11 10 28 -19 11 -20 26 -34 33 -32z
m-122 46 c57 -22 73 -153 26 -218 -12 -18 -26 -32 -31 -32 -4 0 -15 16 -25 35
-16 35 -16 37 8 79 15 27 21 49 16 57 -6 10 -9 9 -14 -6 -19 -59 -36 -86 -53
-83 -36 7 -22 161 16 171 28 8 30 7 57 -3z m-115 -96 c0 -7 -8 -10 -21 -7 -14
4 -17 8 -8 13 7 5 9 16 5 26 -6 18 -5 17 9 0 8 -11 15 -25 15 -32z m-6 -33
c12 -19 -8 -40 -67 -69 -81 -40 -116 -47 -123 -27 -7 18 26 58 71 86 31 20
110 26 119 10z m92 -122 l32 -60 -37 -18 -36 -19 -12 25 c-9 18 -9 31 -2 44 5
11 7 24 3 30 -4 6 -10 26 -14 44 -7 31 -6 33 14 24 11 -6 35 -37 52 -70z m-86
46 c0 -36 -139 -100 -163 -76 -15 15 7 34 64 55 25 9 54 23 65 30 21 16 34 12
34 -9z m314 13 c-5 -7 -20 -30 -36 -52 -31 -43 -29 -56 8 -56 l26 0 -32 -40
c-17 -22 -35 -40 -40 -40 -4 0 -19 21 -32 48 -16 32 -30 47 -43 47 -15 0 -20
7 -20 25 0 19 7 26 30 31 17 4 53 16 80 28 59 24 69 25 59 9z m-299 -58 c10
-16 -11 -44 -52 -73 -50 -34 -73 -35 -73 -2 0 20 9 29 45 46 25 12 48 25 51
30 7 12 21 11 29 -1z m124 -50 c11 -24 11 -24 -3 -6 -9 11 -16 24 -16 30 0 12
5 7 19 -24z m249 -25 c-3 -3 -9 2 -12 12 -6 14 -5 15 5 6 7 -7 10 -15 7 -18z
m-204 -27 c-4 -6 -3 -8 3 -5 6 4 19 -9 29 -28 10 -19 24 -35 31 -35 7 0 13 -9
13 -20 0 -27 14 -25 34 5 15 23 15 24 -1 18 -13 -5 -15 -2 -10 11 4 10 3 15
-3 11 -6 -3 -10 -2 -10 4 0 22 24 22 41 0 17 -22 19 -23 19 -4 1 18 1 19 11 2
12 -20 3 -41 -13 -31 -7 5 -8 2 -3 -5 4 -7 -2 -22 -14 -35 -11 -12 -31 -42
-44 -66 -13 -25 -32 -47 -41 -48 -11 -3 -16 0 -12 7 4 6 2 11 -3 11 -6 0 -11
11 -11 23 0 13 -14 43 -31 66 -24 34 -28 45 -18 57 9 11 15 11 25 3 10 -8 9
-2 -2 20 -18 36 -11 101 7 68 6 -9 7 -22 3 -29z m286 27 c-9 -8 -24 -12 -38
-9 -35 10 -26 24 15 24 33 0 36 -2 23 -15z m-450 -14 c0 -23 -45 -61 -71 -61
-28 0 -23 25 12 54 36 31 59 33 59 7z m119 -18 c12 -25 10 -30 -14 -50 -33
-29 -46 -29 -75 2 -27 28 -28 26 25 53 51 27 50 27 64 -5z"/>
<path d="M1358 2263 c-29 -7 -20 -22 12 -21 17 1 29 6 27 11 -4 13 -16 16 -39
10z"/>
<path d="M1450 2160 c0 -5 4 -10 9 -10 6 0 13 5 16 10 3 6 -1 10 -9 10 -9 0
-16 -4 -16 -10z"/>
<path d="M1332 2122 c-34 -14 -60 -27 -58 -30 5 -5 156 48 156 54 0 10 -41 0
-98 -24z"/>
<path d="M1235 2080 c-3 -5 -2 -10 4 -10 5 0 13 5 16 10 3 6 2 10 -4 10 -5 0
-13 -4 -16 -10z"/>
<path d="M1240 2051 c0 -5 5 -13 10 -16 6 -3 10 -2 10 4 0 5 -4 13 -10 16 -5
3 -10 2 -10 -4z"/>
<path d="M1642 1734 c-2 -39 -52 -137 -104 -205 -26 -34 -30 -35 -91 -36 -62
0 -111 -17 -149 -51 -31 -27 -19 -35 12 -8 40 33 103 50 160 42 43 -6 47 -4
82 34 36 38 87 69 136 84 19 6 22 4 22 -19 0 -30 -31 -95 -54 -114 -9 -8 -16
-18 -16 -24 0 -5 10 -2 21 9 24 21 69 110 69 137 0 10 8 17 20 17 11 0 20 5
20 11 0 17 -109 5 -148 -15 l-30 -16 30 58 c21 42 28 68 25 93 -4 34 -4 34 -5
3z"/>
<path d="M1223 1523 c-19 -7 -16 -43 3 -50 23 -9 48 25 33 44 -12 14 -16 15
-36 6z"/>
<path d="M1895 1428 l27 -32 -63 -22 c-35 -11 -83 -31 -106 -43 l-42 -21 -13
42 c-9 32 -13 38 -15 22 -2 -12 3 -38 11 -57 l14 -36 75 29 c41 16 93 34 116
40 30 8 41 16 41 30 0 20 -46 80 -62 80 -5 0 2 -14 17 -32z"/>
<path d="M1377 1383 c-10 -9 -8 -41 2 -47 16 -10 41 5 41 24 0 10 -7 21 -16
24 -19 7 -19 7 -27 -1z"/>
<path d="M1451 1237 c-17 -21 -3 -49 23 -45 15 2 21 10 21 28 0 28 -26 38 -44
17z"/>
<path d="M754 2076 c-8 -22 3 -49 19 -43 6 2 12 14 12 27 0 27 -22 39 -31 16z"/>
<path d="M335 2044 c-101 -52 -121 -142 -65 -278 65 -156 201 -215 283 -122
72 82 59 241 -28 343 -58 68 -128 89 -190 57z m152 -32 c41 -29 93 -135 100
-204 6 -64 -10 -127 -35 -130 -133 -11 -242 107 -242 261 0 85 33 115 111 101
20 -4 50 -16 66 -28z"/>
<path d="M1506 1804 c-11 -29 -6 -81 9 -94 13 -11 13 -8 4 19 -6 18 -9 45 -5
61 6 32 2 40 -8 14z"/>
<path d="M2043 1813 c-21 -8 -15 -22 7 -16 11 3 20 9 20 14 0 10 -8 10 -27 2z"/>
<path d="M950 1550 c0 -5 5 -10 10 -10 6 0 10 5 10 10 0 6 -4 10 -10 10 -5 0
-10 -4 -10 -10z"/>
<path d="M1036 1504 c-10 -14 -16 -28 -13 -30 2 -3 12 7 21 22 10 14 16 28 13
30 -2 3 -12 -7 -21 -22z"/>
<path d="M1011 1446 c10 -8 89 -13 89 -5 0 5 -21 9 -47 9 -25 0 -44 -2 -42 -4z"/>
<path d="M676 2265 c-17 -17 -21 -35 -8 -35 9 0 35 40 29 46 -3 3 -12 -2 -21
-11z"/>
</g>
</svg>
